<svg width="629" height="201" viewBox="0 0 629 201" fill="none" xmlns="http://www.w3.org/2000/svg">
<path fill-rule="evenodd" clip-rule="evenodd" d="M509.121 77.5V155H526.121H543.121L543.172 139.25C543.319 93.829 543.512 89.766 545.751 84.911C554.309 66.348 580.662 63.123 590.616 79.42L593.621 84.339L593.907 119.67L594.194 155H611.229H628.264L627.92 115.25C627.589 76.936 627.495 75.271 625.312 69.171C622.378 60.973 619.494 56.505 613.691 51.165C597.458 36.225 568.431 35.076 549.381 48.62C546.767 50.479 544.401 52 544.124 52.001C543.847 52.001 543.738 40.301 543.88 26.001L544.139 0H526.63H509.121V77.5ZM0.121002 25.153V39.805L34.082 39.947C70.931 40.101 74.761 40.544 84.546 45.783C100.323 54.23 109.316 73.486 106.225 92.203C104.176 104.609 99.164 113.596 90.918 119.649C82.67 125.704 77.053 126.862 54.962 127.067L35.621 127.246L35.359 91.123L35.096 55H17.749H0.402008L0.201004 104.841L0 154.683L15.22 155.341C37.454 156.304 67.29 156.132 77.621 154.982C104.403 152.001 125.374 138.769 135.056 118.743C147.056 93.924 144.969 63.956 129.758 42.639C118.03 26.204 98.926 15.043 77.346 12.02C73.097 11.424 53.983 10.839 34.871 10.719L0.119995 10.5L0.121002 25.153ZM428.121 27V42L419.871 42.005L411.621 42.009L411.269 55.505L410.916 69H419.519H428.121V98.395C428.121 125.374 428.293 128.345 430.208 134.547C435.301 151.034 454.317 160.178 477.337 157.206C484.749 156.249 496.408 153.047 497.896 151.559C498.35 151.104 490.215 127 489.607 127C489.46 127 487.378 127.89 484.98 128.978C476.49 132.831 467.477 130.703 463.956 124.016C462.314 120.897 462.121 117.826 462.121 94.792V69.052L477.371 68.776L492.621 68.5L492.437 56C492.336 49.125 492.223 43.275 492.186 43C492.15 42.725 485.483 42.47 477.37 42.433L462.621 42.367L462.345 27.183L462.069 12H445.095H428.121V27ZM201.621 39.632C183.549 42.423 166.115 54.153 158.331 68.757C143.64 96.321 152.699 133.057 177.974 148.41C202.253 163.159 238.058 160.437 256.466 142.443L262.312 136.729L253.053 127.432L243.794 118.134L239.638 121.54C228.797 130.423 213.629 133.428 201.882 129.019C195.152 126.492 187.853 119.747 186.098 114.431C185.451 112.47 185.108 110.68 185.335 110.453C185.562 110.226 204.684 110.012 227.828 109.979L269.909 109.918L270.501 107.709C271.668 103.358 271.092 87.674 269.544 81.644C262.981 56.084 242.535 40.392 214.621 39.491C209.121 39.314 203.271 39.377 201.621 39.632ZM342.121 39.959C334.767 41.333 326.962 44.725 321.371 48.977L316.121 52.969V47.485V42H299.621H283.121V114.752V187.505L297.955 193.303C306.114 196.491 313.764 199.355 314.955 199.667L317.121 200.233V172.623V145.013L323.371 149.292C332.56 155.582 339.361 157.486 352.621 157.483C361.492 157.48 364.916 157.034 370.311 155.178C382.617 150.945 392.542 142.976 399.802 131.5C408.634 117.54 411.051 94.821 405.477 78.16C399.508 60.316 385.708 46.74 368.363 41.647C361.817 39.725 348.096 38.842 342.121 39.959ZM221.621 66.867C229.518 70.467 234.593 76.723 236.533 85.25L237.159 88H210.64C190.086 88 184.123 87.719 184.131 86.75C184.136 86.063 185.191 83.25 186.474 80.5C188.993 75.101 195.427 68.643 200.476 66.447C205.115 64.428 216.779 64.66 221.621 66.867ZM355.23 70.617C361.576 72.614 367.467 77.967 370.81 84.776C373.259 89.763 373.621 91.659 373.621 99.5C373.621 110.193 371.344 115.914 364.405 122.658C353.551 133.207 335.498 132.383 324.422 120.835C318.976 115.157 316.695 108.727 316.675 99C316.66 91.222 316.947 89.965 320.053 84.204C327.529 70.341 339.572 65.689 355.23 70.617Z" fill="black"/>
</svg>
